<svg xmlns="http://www.w3.org/2000/svg" xmlns:xlink="http://www.w3.org/1999/xlink" width="45pt" height="45pt" viewBox="0 0 45 45"><g id="surface1"><path style=" stroke:none;fill-rule:nonzero;fill:rgb(0%,0%,0%);fill-opacity:1;" d="M 34.804688 22.367188 L 36.035156 22.367188 C 36.199219 22.367188 36.355469 22.304688 36.46875 22.1875 C 36.585938 22.074219 36.652344 21.917969 36.648438 21.753906 L 36.648438 16.847656 C 36.652344 16.6875 36.585938 16.527344 36.46875 16.414062 C 36.355469 16.296875 36.199219 16.234375 36.035156 16.234375 L 34.757812 16.234375 C 34.449219 14.007812 32.550781 12.351562 30.304688 12.347656 L 29.574219 12.347656 L 29.574219 8.964844 C 29.574219 8.625 29.300781 8.351562 28.960938 8.351562 C 28.621094 8.351562 28.34375 8.625 28.34375 8.964844 L 28.34375 12.347656 L 17.757812 12.347656 L 17.757812 11.207031 C 17.757812 11.042969 17.691406 10.886719 17.574219 10.769531 C 17.460938 10.65625 17.304688 10.589844 17.140625 10.589844 L 12.785156 10.589844 C 12.621094 10.589844 12.464844 10.65625 12.351562 10.769531 C 12.234375 10.886719 12.171875 11.042969 12.171875 11.207031 L 12.171875 12.347656 L 10.8125 12.347656 C 10.648438 12.347656 10.492188 12.414062 10.375 12.527344 C 10.261719 12.644531 10.195312 12.800781 10.195312 12.964844 L 10.195312 16.917969 C 10.195312 17.078125 10.261719 17.234375 10.375 17.351562 C 10.492188 17.46875 10.648438 17.53125 10.8125 17.53125 L 12.171875 17.53125 L 12.171875 21.269531 C 12.171875 21.433594 12.234375 21.589844 12.351562 21.707031 C 12.464844 21.820312 12.621094 21.886719 12.785156 21.886719 L 13.332031 21.886719 L 13.332031 23.304688 C 13.332031 23.46875 13.394531 23.625 13.511719 23.742188 C 13.625 23.855469 13.78125 23.921875 13.945312 23.921875 L 14.347656 23.921875 L 14.347656 24.417969 L 12.785156 24.417969 C 12.621094 24.417969 12.464844 24.484375 12.351562 24.597656 C 12.234375 24.714844 12.171875 24.871094 12.171875 25.035156 L 12.171875 26.238281 L 10.8125 26.238281 C 10.648438 26.238281 10.492188 26.300781 10.375 26.417969 C 10.261719 26.535156 10.195312 26.691406 10.195312 26.851562 L 10.195312 30.191406 L 8.964844 30.191406 C 8.800781 30.191406 8.644531 30.253906 8.53125 30.371094 C 8.414062 30.484375 8.347656 30.640625 8.351562 30.804688 L 8.351562 33.792969 C 8.347656 33.957031 8.414062 34.113281 8.53125 34.230469 C 8.644531 34.34375 8.800781 34.410156 8.964844 34.410156 L 12.171875 34.410156 L 12.171875 36.035156 C 12.171875 36.199219 12.234375 36.355469 12.351562 36.46875 C 12.464844 36.585938 12.621094 36.652344 12.785156 36.648438 L 25.3125 36.648438 C 25.476562 36.652344 25.632812 36.585938 25.746094 36.46875 C 25.863281 36.355469 25.929688 36.199219 25.929688 36.035156 L 25.929688 34.410156 L 36.035156 34.410156 C 36.199219 34.410156 36.355469 34.34375 36.46875 34.230469 C 36.585938 34.113281 36.652344 33.957031 36.648438 33.792969 L 36.648438 30.804688 C 36.652344 30.640625 36.585938 30.484375 36.46875 30.371094 C 36.355469 30.253906 36.199219 30.191406 36.035156 30.191406 L 34.804688 30.191406 Z M 35.421875 21.136719 L 34.804688 21.136719 L 34.804688 17.464844 L 35.421875 17.464844 Z M 13.402344 11.820312 L 16.527344 11.820312 L 16.527344 12.347656 L 13.402344 12.347656 Z M 11.425781 13.578125 L 30.304688 13.578125 C 32.109375 13.582031 33.570312 15.042969 33.574219 16.847656 L 33.574219 26.238281 L 28.148438 26.238281 L 28.148438 19.195312 C 28.144531 17.597656 26.851562 16.300781 25.253906 16.300781 L 11.425781 16.300781 Z M 16.527344 17.53125 L 16.527344 20.65625 L 13.402344 20.65625 L 13.402344 17.53125 Z M 15.367188 21.886719 L 15.367188 22.691406 L 14.5625 22.691406 L 14.5625 21.886719 Z M 15.980469 23.921875 C 16.144531 23.921875 16.300781 23.855469 16.414062 23.742188 C 16.53125 23.625 16.597656 23.46875 16.597656 23.304688 L 16.597656 21.886719 L 17.140625 21.886719 C 17.304688 21.886719 17.460938 21.820312 17.574219 21.707031 C 17.691406 21.589844 17.757812 21.433594 17.757812 21.269531 L 17.757812 17.53125 L 25.253906 17.53125 C 26.171875 17.53125 26.914062 18.277344 26.917969 19.195312 L 26.917969 26.238281 L 25.929688 26.238281 L 25.929688 25.035156 C 25.929688 24.871094 25.863281 24.714844 25.746094 24.597656 C 25.632812 24.484375 25.476562 24.417969 25.3125 24.417969 L 15.578125 24.417969 L 15.578125 23.921875 Z M 11.425781 27.46875 L 12.171875 27.46875 L 12.171875 30.191406 L 11.425781 30.191406 Z M 9.578125 33.179688 L 9.578125 31.421875 L 12.171875 31.421875 L 12.171875 33.179688 Z M 24.695312 35.417969 L 15.578125 35.417969 L 15.578125 35.15625 C 15.578125 34.816406 15.304688 34.542969 14.964844 34.542969 C 14.625 34.542969 14.347656 34.816406 14.347656 35.15625 L 14.347656 35.421875 L 13.402344 35.421875 L 13.402344 25.648438 L 14.347656 25.648438 L 14.347656 25.914062 C 14.347656 26.253906 14.625 26.527344 14.964844 26.527344 C 15.304688 26.527344 15.578125 26.253906 15.578125 25.914062 L 15.578125 25.648438 L 24.695312 25.648438 Z M 35.421875 33.179688 L 25.929688 33.179688 L 25.929688 31.421875 L 35.421875 31.421875 Z M 25.929688 30.191406 L 25.929688 27.46875 L 33.574219 27.46875 L 33.574219 30.191406 Z M 25.929688 30.191406 "></path><path style=" stroke:none;fill-rule:nonzero;fill:rgb(0%,0%,0%);fill-opacity:1;" d="M 14.964844 30.84375 C 14.625 30.84375 14.347656 31.121094 14.347656 31.457031 L 14.347656 33.308594 C 14.347656 33.648438 14.625 33.921875 14.964844 33.921875 C 15.304688 33.921875 15.578125 33.648438 15.578125 33.308594 L 15.578125 31.457031 C 15.578125 31.117188 15.304688 30.84375 14.964844 30.84375 Z M 14.964844 30.84375 "></path><path style=" stroke:none;fill-rule:nonzero;fill:rgb(0%,0%,0%);fill-opacity:1;" d="M 14.964844 27.148438 C 14.625 27.148438 14.347656 27.421875 14.347656 27.761719 L 14.347656 29.609375 C 14.347656 29.949219 14.625 30.226562 14.964844 30.226562 C 15.304688 30.226562 15.578125 29.949219 15.578125 29.609375 L 15.578125 27.761719 C 15.578125 27.597656 15.515625 27.441406 15.398438 27.328125 C 15.28125 27.210938 15.125 27.148438 14.964844 27.148438 Z M 14.964844 27.148438 "></path></g></svg>