<svg xmlns="http://www.w3.org/2000/svg" width="512" height="512" viewBox="0 0 128 128"><g><path d="M99,63.625h3.5a1.749,1.749,0,0,0,1.75-1.75V47.926a1.749,1.749,0,0,0-1.75-1.75H98.866A12.809,12.809,0,0,0,86.2,35.125H84.125V25.5a1.75,1.75,0,0,0-3.5,0v9.625H50.506v-3.25a1.749,1.749,0,0,0-1.75-1.75H36.369a1.749,1.749,0,0,0-1.75,1.75v3.25H30.75A1.749,1.749,0,0,0,29,36.875V48.118a1.749,1.749,0,0,0,1.75,1.75h3.869V60.505a1.749,1.749,0,0,0,1.75,1.75h1.55v4.037a1.749,1.749,0,0,0,1.75,1.75h1.143v1.416H36.369a1.749,1.749,0,0,0-1.75,1.75v3.424H30.75A1.749,1.749,0,0,0,29,76.382v9.493H25.5a1.749,1.749,0,0,0-1.75,1.75v8.5a1.749,1.749,0,0,0,1.75,1.75h9.119V102.5a1.749,1.749,0,0,0,1.75,1.75H72a1.749,1.749,0,0,0,1.75-1.75V97.875H102.5a1.749,1.749,0,0,0,1.75-1.75v-8.5a1.749,1.749,0,0,0-1.75-1.75H99V63.625Zm1.75-3.5H99V49.676h1.75Zm-62.631-26.5h8.887v1.5H38.119Zm-5.619,5H86.2a9.311,9.311,0,0,1,9.3,9.3V74.632H80.064V54.6a8.243,8.243,0,0,0-8.233-8.234H32.5ZM47.006,49.868v8.887H38.119V49.868Zm-3.3,12.387v2.287H41.419V62.255Zm1.75,5.787a1.749,1.749,0,0,0,1.75-1.75V62.255h1.55a1.749,1.749,0,0,0,1.75-1.75V49.868H71.831A4.738,4.738,0,0,1,76.564,54.6v20.03H73.75V71.208A1.749,1.749,0,0,0,72,69.458H44.312V68.042ZM32.5,78.132h2.119v7.743H32.5ZM27.25,94.375v-5h7.369v5Zm43,6.375H44.312V100a1.75,1.75,0,0,0-3.5,0v.75H38.119V72.958h2.693v.75a1.75,1.75,0,0,0,3.5,0v-.75H70.25Zm30.5-6.375h-27v-5h27Zm-27-8.5V78.132H95.5v7.743Z"></path><path d="M42.562,87.733a1.751,1.751,0,0,0-1.75,1.75v5.259a1.75,1.75,0,0,0,3.5,0V89.483A1.75,1.75,0,0,0,42.562,87.733Z"></path><path d="M42.562,77.217a1.75,1.75,0,0,0-1.75,1.75v5.259a1.75,1.75,0,0,0,3.5,0V78.967A1.749,1.749,0,0,0,42.562,77.217Z"></path></g></svg>